    <svg
      fill="none"
      xmlns="http://www.w3.org/2000/svg"
      viewBox="0 0 24 24"
      class="h-8 w-8"
    >
      <path
        d="M2.48 6.163v-.61a2.082 2.082 0 01-1.59-2.02c0-.449.253-1.023.757-1.753.358-.517.741-.966.89-1.134M2.48 6.163L.55 5.886h0a.768.768 0 00-.35.646v8.854c0 .642.521 1.164 1.163 1.164h3.272c.642 0 1.164-.522 1.164-1.164V6.532a.768.768 0 00-1.085-.703 4.19 4.19 0 01-1.196.334v-.626a2.083 2.083 0 001.528-2.005c0-.448-.253-1.022-.757-1.752A13.26 13.26 0 003.4.646h0A.575.575 0 002.969.45h0a.575.575 0 00-.432.196m-.055 5.517a4.191 4.191 0 01-1.196-.334l1.196.334zM2.536.646l.038.033M2.536.646s0 0 0 0l.038.033m0 0c-.148.168-.53.614-.886 1.13C1.184 2.536.94 3.1.94 3.531c0 .969.683 1.78 1.592 1.981L2.574.68zM2.48 3.922v.53a1.042 1.042 0 01-.553-.92c0-.07.024-.17.075-.296a3.42 3.42 0 01.22-.433 9.1 9.1 0 01.745-1.058 9.1 9.1 0 01.746 1.058c.095.162.169.308.22.433a.86.86 0 01.075.296c0 .372-.196.699-.49.883v-.493a.52.52 0 00-.52-.52h0a.52.52 0 00-.518.52zm2.28 11.464c0 .07-.056.126-.125.126H1.364a.126.126 0 01-.125-.126V6.928a5.237 5.237 0 001.747.305h.028a5.237 5.237 0 001.748-.305v8.458z"
        fill="currentColor"
        stroke="currentColor"
        stroke-width=".1"
      />
    </svg>