<svg fill="none" xmlns="http://www.w3.org/2000/svg" viewBox="0 0 510 508">
  <path fill-rule="evenodd" clip-rule="evenodd"
    d="M231 15.1292c0-8.59294-7.411-15.359628-15.9-14.02574C93.2206 20.2552 0 125.741 0 253c0 140.833 114.167 255 255 255s255-114.167 255-255c0-126.89-92.681-232.1334-214.042-251.7279C287.45-.101549 280 6.67397 280 15.292c0 7.4417 5.619 13.6409 12.956 14.8817C399.701 48.2251 481 141.118 481 253c0 124.816-101.184 226-226 226S29 377.816 29 253c0-112.209 81.776-205.3183 188.981-222.9828C225.347 28.8036 231 22.5937 231 15.1292z"
    class="fill-current" />
</svg>